<?xml version="1.0" encoding="UTF-8"?>
<svg xmlns="http://www.w3.org/2000/svg" xmlns:xlink="http://www.w3.org/1999/xlink" width="500" zoomAndPan="magnify" viewBox="0 0 375 374.999991" height="500" preserveAspectRatio="xMidYMid meet" version="1.0" style="background: none;"><defs><g/><clipPath id="ac7a10a53e"><rect x="0" width="235" y="0" height="83"/></clipPath><clipPath id="7998a1dffe"><path d="M 15 110.660156 L 121.921875 110.660156 L 121.921875 264.410156 L 15 264.410156 Z M 15 110.660156 " clip-rule="nonzero"/></clipPath><clipPath id="aba0478cc1"><path d="M 89.449219 256.949219 C 89.484375 256.949219 98.933594 258.914062 103.308594 249.65625 C 98.402344 250.921875 91.488281 251.121094 84.84375 249.222656 C 77.328125 247.058594 70.113281 242.261719 66.410156 233.371094 C 66.207031 232.871094 65.972656 232.304688 65.773438 231.671875 C 61.230469 218.585938 60.699219 206.566406 60.832031 200.136719 C 58.261719 204.101562 55.753906 208.53125 53.953125 213.859375 C 51.480469 221.085938 50.246094 230.042969 51.746094 242.03125 L 52.015625 244.195312 L 49.976562 243.394531 C 49.945312 243.394531 40.492188 239.867188 32.644531 226.976562 C 32.480469 231.507812 32.613281 236.203125 33.480469 240.765625 C 34.648438 246.757812 37.152344 252.554688 42.164062 257.480469 L 49.210938 264.375 L 40.59375 259.546875 C 32.546875 255.050781 26.566406 251.222656 22.425781 245.960938 C 18.253906 240.664062 16.082031 234.003906 15.679688 223.882812 L 15.347656 215.421875 L 18.21875 223.414062 C 18.71875 224.8125 18.820312 225.046875 18.886719 225.3125 L 19.253906 226.34375 C 17.984375 219.519531 17.484375 210.660156 21.15625 203.902344 C 23.09375 200.335938 25.464844 196.875 27.769531 193.578125 C 33.148438 185.785156 38.023438 178.726562 34.949219 173.097656 L 32.179688 168.003906 L 36.886719 171.398438 C 45.101562 177.359375 43.5 181.523438 41.0625 187.78125 C 40.792969 188.484375 40.492188 189.25 40.160156 190.214844 C 38.757812 194.109375 37.6875 199.273438 38.222656 204.632812 C 38.488281 207.265625 39.15625 209.929688 40.394531 212.527344 C 40.660156 203.699219 42.699219 184.6875 54.855469 172.566406 C 56.488281 170.933594 58.695312 168.769531 60.863281 166.636719 C 73.855469 153.816406 84.476562 143.359375 83.105469 137.664062 C 82.40625 134.835938 80.867188 134.867188 79.300781 134.902344 C 76.929688 134.933594 74.523438 135 72.953125 131.273438 C 69.980469 124.144531 84.375 114.921875 84.441406 114.921875 L 90.953125 110.691406 L 86.179688 116.820312 C 86.144531 116.851562 76.359375 129.308594 84.574219 130.503906 C 90.417969 131.371094 94.027344 132.769531 94.761719 137.097656 C 95.394531 140.929688 93.222656 147.054688 87.582031 157.378906 C 82.171875 167.269531 78.128906 176.496094 78.097656 182.953125 C 78.0625 188.816406 81.769531 192.3125 91.6875 191.613281 C 94.292969 191.445312 95.929688 190.046875 96.597656 188.347656 C 96.863281 187.648438 96.964844 186.917969 96.898438 186.183594 C 96.832031 185.484375 96.5625 184.785156 96.164062 184.152344 C 95.09375 182.589844 92.855469 181.554688 89.285156 182.023438 C 86.210938 182.421875 84.242188 181.6875 83.238281 180.257812 C 82.503906 179.257812 82.304688 178.027344 82.472656 176.628906 C 82.636719 175.394531 83.105469 174.0625 83.808594 172.765625 C 86.078125 168.570312 90.953125 164.273438 95.730469 164.105469 L 98.433594 164.039062 L 96.796875 166.203125 C 96.195312 167.035156 95.527344 167.835938 94.960938 168.535156 C 93.992188 169.734375 93.191406 170.734375 92.824219 171.53125 C 91.855469 173.628906 94.527344 175.496094 107.519531 181.421875 L 107.617188 181.488281 C 109.019531 182.289062 110.023438 183.320312 110.625 184.488281 C 111.324219 185.785156 111.523438 187.285156 111.324219 188.847656 C 111.125 190.347656 110.554688 191.914062 109.621094 193.511719 C 107.183594 197.707031 102.242188 202.203125 95.429688 205.800781 C 89.75 208.796875 86.34375 212.757812 84.574219 216.886719 C 83.304688 219.886719 82.871094 222.949219 83.039062 225.8125 C 83.808594 223.515625 85.042969 222.382812 88.25 220.71875 L 91.820312 218.851562 L 90.019531 222.449219 C 89.652344 223.183594 89.285156 223.980469 88.984375 224.847656 C 88.316406 226.679688 87.882812 228.609375 87.980469 230.273438 C 88.046875 231.640625 88.484375 232.738281 89.484375 233.238281 C 89.617188 233.304688 89.71875 233.339844 89.785156 233.371094 C 90.71875 233.703125 91.753906 233.804688 92.691406 233.570312 C 93.324219 233.4375 93.890625 233.140625 94.425781 232.671875 C 94.960938 232.207031 95.429688 231.539062 95.730469 230.640625 C 96.429688 228.710938 96.53125 225.8125 95.527344 221.648438 C 94.660156 217.886719 94.960938 214.492188 96.164062 211.761719 C 97.097656 209.59375 98.601562 207.898438 100.503906 206.765625 C 102.410156 205.632812 104.679688 205.101562 107.183594 205.332031 C 110.421875 205.632812 114.0625 207.199219 117.738281 210.359375 L 121.210938 213.390625 L 116.632812 212.660156 C 112.425781 211.960938 108.6875 211.960938 106.148438 212.726562 C 105.011719 213.058594 104.179688 213.523438 103.710938 214.125 C 103.308594 214.65625 103.144531 215.324219 103.308594 216.1875 C 103.578125 217.421875 104.445312 218.953125 106.082031 220.851562 C 108.820312 223.980469 112.058594 228.511719 114.363281 233.503906 C 116.300781 237.667969 117.570312 242.195312 117.4375 246.527344 C 117.269531 250.988281 115.632812 255.21875 111.660156 258.679688 C 110.089844 260.046875 108.1875 261.277344 105.847656 262.34375 L 105.679688 262.410156 C 97.597656 264.941406 92.15625 261.679688 89.351562 260.011719 C 89.015625 259.8125 88.75 259.644531 88.484375 259.511719 L 80.835938 255.382812 L 89.382812 257.050781 Z M 89.449219 256.949219 " clip-rule="nonzero"/></clipPath><linearGradient x1="36.346892" gradientTransform="matrix(3.339508, 0, 0, 3.330084, 15.313852, 110.658447)" y1="4.739346" x2="-2.891511" gradientUnits="userSpaceOnUse" y2="43.210637" id="b6ec177a72"><stop stop-opacity="1" stop-color="rgb(93.621826%, 26.765442%, 21.313477%)" offset="0"/><stop stop-opacity="1" stop-color="rgb(93.635559%, 26.922607%, 21.307373%)" offset="0.015625"/><stop stop-opacity="1" stop-color="rgb(93.666077%, 27.235413%, 21.295166%)" offset="0.03125"/><stop stop-opacity="1" stop-color="rgb(93.695068%, 27.549744%, 21.284485%)" offset="0.046875"/><stop stop-opacity="1" stop-color="rgb(93.725586%, 27.862549%, 21.273804%)" offset="0.0625"/><stop stop-opacity="1" stop-color="rgb(93.756104%, 28.175354%, 21.261597%)" offset="0.078125"/><stop stop-opacity="1" stop-color="rgb(93.785095%, 28.489685%, 21.250916%)" offset="0.09375"/><stop stop-opacity="1" stop-color="rgb(93.815613%, 28.80249%, 21.238708%)" offset="0.109375"/><stop stop-opacity="1" stop-color="rgb(93.844604%, 29.115295%, 21.228027%)" offset="0.125"/><stop stop-opacity="1" stop-color="rgb(93.875122%, 29.429626%, 21.217346%)" offset="0.140625"/><stop stop-opacity="1" stop-color="rgb(93.90564%, 29.742432%, 21.205139%)" offset="0.15625"/><stop stop-opacity="1" stop-color="rgb(93.934631%, 30.055237%, 21.194458%)" offset="0.171875"/><stop stop-opacity="1" stop-color="rgb(93.965149%, 30.369568%, 21.183777%)" offset="0.1875"/><stop stop-opacity="1" stop-color="rgb(93.994141%, 30.682373%, 21.17157%)" offset="0.203125"/><stop stop-opacity="1" stop-color="rgb(94.024658%, 30.995178%, 21.160889%)" offset="0.21875"/><stop stop-opacity="1" stop-color="rgb(94.05365%, 31.309509%, 21.150208%)" offset="0.234375"/><stop stop-opacity="1" stop-color="rgb(94.084167%, 31.622314%, 21.138%)" offset="0.25"/><stop stop-opacity="1" stop-color="rgb(94.114685%, 31.936646%, 21.127319%)" offset="0.265625"/><stop stop-opacity="1" stop-color="rgb(94.143677%, 32.249451%, 21.116638%)" offset="0.28125"/><stop stop-opacity="1" stop-color="rgb(94.174194%, 32.562256%, 21.104431%)" offset="0.296875"/><stop stop-opacity="1" stop-color="rgb(94.203186%, 32.876587%, 21.09375%)" offset="0.3125"/><stop stop-opacity="1" stop-color="rgb(94.233704%, 33.189392%, 21.081543%)" offset="0.328125"/><stop stop-opacity="1" stop-color="rgb(94.262695%, 33.502197%, 21.070862%)" offset="0.34375"/><stop stop-opacity="1" stop-color="rgb(94.293213%, 33.816528%, 21.060181%)" offset="0.359375"/><stop stop-opacity="1" stop-color="rgb(94.32373%, 34.129333%, 21.047974%)" offset="0.375"/><stop stop-opacity="1" stop-color="rgb(94.352722%, 34.442139%, 21.037292%)" offset="0.390625"/><stop stop-opacity="1" stop-color="rgb(94.38324%, 34.75647%, 21.026611%)" offset="0.40625"/><stop stop-opacity="1" stop-color="rgb(94.412231%, 35.069275%, 21.014404%)" offset="0.411915"/><stop stop-opacity="1" stop-color="rgb(94.42749%, 35.22644%, 21.009827%)" offset="0.421875"/><stop stop-opacity="1" stop-color="rgb(94.442749%, 35.38208%, 21.003723%)" offset="0.4375"/><stop stop-opacity="1" stop-color="rgb(94.471741%, 35.696411%, 20.993042%)" offset="0.453125"/><stop stop-opacity="1" stop-color="rgb(94.502258%, 36.009216%, 20.980835%)" offset="0.46875"/><stop stop-opacity="1" stop-color="rgb(94.532776%, 36.323547%, 20.970154%)" offset="0.484375"/><stop stop-opacity="1" stop-color="rgb(94.561768%, 36.636353%, 20.959473%)" offset="0.5"/><stop stop-opacity="1" stop-color="rgb(94.592285%, 36.949158%, 20.947266%)" offset="0.515625"/><stop stop-opacity="1" stop-color="rgb(94.621277%, 37.263489%, 20.936584%)" offset="0.53125"/><stop stop-opacity="1" stop-color="rgb(94.651794%, 37.576294%, 20.924377%)" offset="0.546875"/><stop stop-opacity="1" stop-color="rgb(94.680786%, 37.889099%, 20.913696%)" offset="0.5625"/><stop stop-opacity="1" stop-color="rgb(94.711304%, 38.20343%, 20.903015%)" offset="0.578125"/><stop stop-opacity="1" stop-color="rgb(94.741821%, 38.516235%, 20.890808%)" offset="0.588085"/><stop stop-opacity="1" stop-color="rgb(94.75708%, 38.673401%, 20.88623%)" offset="0.59375"/><stop stop-opacity="1" stop-color="rgb(94.770813%, 38.829041%, 20.880127%)" offset="0.609375"/><stop stop-opacity="1" stop-color="rgb(94.801331%, 39.143372%, 20.869446%)" offset="0.625"/><stop stop-opacity="1" stop-color="rgb(94.830322%, 39.456177%, 20.857239%)" offset="0.640625"/><stop stop-opacity="1" stop-color="rgb(94.86084%, 39.768982%, 20.846558%)" offset="0.65625"/><stop stop-opacity="1" stop-color="rgb(94.891357%, 40.083313%, 20.835876%)" offset="0.671875"/><stop stop-opacity="1" stop-color="rgb(94.920349%, 40.396118%, 20.823669%)" offset="0.6875"/><stop stop-opacity="1" stop-color="rgb(94.950867%, 40.710449%, 20.812988%)" offset="0.703125"/><stop stop-opacity="1" stop-color="rgb(94.979858%, 41.023254%, 20.802307%)" offset="0.71875"/><stop stop-opacity="1" stop-color="rgb(95.010376%, 41.33606%, 20.7901%)" offset="0.734375"/><stop stop-opacity="1" stop-color="rgb(95.039368%, 41.650391%, 20.779419%)" offset="0.75"/><stop stop-opacity="1" stop-color="rgb(95.069885%, 41.963196%, 20.767212%)" offset="0.765625"/><stop stop-opacity="1" stop-color="rgb(95.100403%, 42.276001%, 20.756531%)" offset="0.78125"/><stop stop-opacity="1" stop-color="rgb(95.129395%, 42.590332%, 20.74585%)" offset="0.796875"/><stop stop-opacity="1" stop-color="rgb(95.159912%, 42.903137%, 20.733643%)" offset="0.8125"/><stop stop-opacity="1" stop-color="rgb(95.188904%, 43.215942%, 20.722961%)" offset="0.828125"/><stop stop-opacity="1" stop-color="rgb(95.219421%, 43.530273%, 20.71228%)" offset="0.84375"/><stop stop-opacity="1" stop-color="rgb(95.248413%, 43.843079%, 20.700073%)" offset="0.859375"/><stop stop-opacity="1" stop-color="rgb(95.278931%, 44.15741%, 20.689392%)" offset="0.875"/><stop stop-opacity="1" stop-color="rgb(95.309448%, 44.470215%, 20.678711%)" offset="0.890625"/><stop stop-opacity="1" stop-color="rgb(95.33844%, 44.78302%, 20.666504%)" offset="0.90625"/><stop stop-opacity="1" stop-color="rgb(95.368958%, 45.097351%, 20.655823%)" offset="0.921875"/><stop stop-opacity="1" stop-color="rgb(95.397949%, 45.410156%, 20.645142%)" offset="0.9375"/><stop stop-opacity="1" stop-color="rgb(95.428467%, 45.722961%, 20.632935%)" offset="0.953125"/><stop stop-opacity="1" stop-color="rgb(95.457458%, 46.037292%, 20.622253%)" offset="0.96875"/><stop stop-opacity="1" stop-color="rgb(95.487976%, 46.350098%, 20.610046%)" offset="0.984375"/><stop stop-opacity="1" stop-color="rgb(95.518494%, 46.662903%, 20.599365%)" offset="1"/></linearGradient></defs><g transform="matrix(1, 0, 0, 1, 126, 165)"><g clip-path="url(#ac7a10a53e)"><g fill="#323131" fill-opacity="1"><g transform="translate(0.791348, 54.579587)"><g><path d="M 5.546875 -4.0625 L 5.546875 -32.265625 L 1.890625 -32.75 L 1.890625 -36.609375 L 28.9375 -36.609375 L 29.65625 -28.40625 L 25.5 -28.34375 L 23.8125 -31.96875 L 13.90625 -32.5 L 13.90625 -20.140625 L 20.71875 -20.421875 L 22.265625 -24.046875 L 25.796875 -24.046875 L 25.796875 -12.03125 L 21.875 -12.03125 L 20.8125 -15.890625 L 13.953125 -15.984375 L 13.953125 -4.390625 L 21.484375 -3.765625 L 21.484375 0 L 2.03125 0 L 2.03125 -3.28125 Z M 5.546875 -4.0625 "/></g></g></g><g fill="#323131" fill-opacity="1"><g transform="translate(31.991034, 54.579587)"><g><path d="M 9.375 -40.953125 C 10.914062 -40.953125 12.101562 -40.554688 12.9375 -39.765625 C 13.78125 -38.984375 14.203125 -37.898438 14.203125 -36.515625 C 14.203125 -34.960938 13.628906 -33.695312 12.484375 -32.71875 C 11.335938 -31.738281 9.992188 -31.25 8.453125 -31.25 C 7.097656 -31.25 5.953125 -31.664062 5.015625 -32.5 C 4.085938 -33.34375 3.625 -34.40625 3.625 -35.6875 C 3.625 -36.65625 3.90625 -37.539062 4.46875 -38.34375 C 5.03125 -39.15625 5.753906 -39.789062 6.640625 -40.25 C 7.523438 -40.71875 8.4375 -40.953125 9.375 -40.953125 Z M 13.375 -26.5625 L 13.375 -3.8125 L 16.765625 -3.1875 L 16.765625 0 L 1.890625 0 L 1.890625 -3.1875 L 5.015625 -3.859375 L 5.015625 -18.546875 L 2.03125 -21.921875 L 2.03125 -24.15625 L 11.34375 -27.140625 Z M 13.375 -26.5625 "/></g></g></g><g fill="#323131" fill-opacity="1"><g transform="translate(49.619337, 54.579587)"><g><path d="M 5.21875 -3.8125 L 5.21875 -19.3125 L 2.03125 -21.59375 L 2.03125 -24.53125 L 10.765625 -27.140625 L 12.453125 -26.703125 L 12.453125 -22.125 C 12.679688 -22.988281 13.171875 -23.804688 13.921875 -24.578125 C 14.679688 -25.359375 15.546875 -25.976562 16.515625 -26.4375 C 17.484375 -26.90625 18.382812 -27.140625 19.21875 -27.140625 C 20.539062 -27.140625 21.394531 -27.046875 21.78125 -26.859375 L 21.78125 -19.421875 C 21.425781 -19.773438 20.820312 -20.046875 19.96875 -20.234375 C 19.113281 -20.429688 18.378906 -20.53125 17.765625 -20.53125 C 16.867188 -20.53125 16.023438 -20.441406 15.234375 -20.265625 C 14.441406 -20.085938 13.890625 -19.882812 13.578125 -19.65625 L 13.578125 -4.015625 L 19.078125 -3.1875 L 19.078125 0 L 2.3125 0 L 2.3125 -3.1875 Z M 5.21875 -3.8125 "/></g></g></g><g fill="#323131" fill-opacity="1"><g transform="translate(72.415393, 54.579587)"><g><path d="M 16.171875 -27.140625 C 19.753906 -27.140625 22.484375 -26.242188 24.359375 -24.453125 C 26.242188 -22.671875 27.1875 -20.070312 27.1875 -16.65625 C 27.1875 -15.238281 27.078125 -13.859375 26.859375 -12.515625 L 10.4375 -12.515625 C 10.65625 -9.710938 11.375 -7.601562 12.59375 -6.1875 C 13.820312 -4.769531 15.597656 -4.0625 17.921875 -4.0625 C 20.492188 -4.0625 22.988281 -4.59375 25.40625 -5.65625 L 26.65625 -2.703125 C 25.40625 -1.640625 23.722656 -0.8125 21.609375 -0.21875 C 19.503906 0.375 17.484375 0.671875 15.546875 0.671875 C 11.140625 0.671875 7.734375 -0.476562 5.328125 -2.78125 C 2.929688 -5.082031 1.734375 -8.328125 1.734375 -12.515625 C 1.734375 -15.347656 2.34375 -17.875 3.5625 -20.09375 C 4.789062 -22.3125 6.5 -24.039062 8.6875 -25.28125 C 10.882812 -26.519531 13.378906 -27.140625 16.171875 -27.140625 Z M 15.453125 -23.859375 C 12.523438 -23.859375 10.851562 -21.332031 10.4375 -16.28125 L 19.078125 -16.28125 C 19.203125 -17.4375 19.265625 -18.414062 19.265625 -19.21875 C 19.265625 -22.3125 17.992188 -23.859375 15.453125 -23.859375 Z M 15.453125 -23.859375 "/></g></g></g><g fill="#323131" fill-opacity="1"><g transform="translate(101.634914, 54.579587)"><g><path d="M 13.46875 -4.203125 L 13.46875 -32.65625 L 7 -32.015625 L 5.359375 -26.953125 L 1.109375 -26.75 L 1.6875 -36.609375 L 33.234375 -36.609375 L 33.234375 -27.046875 L 29.890625 -26.609375 L 28.0625 -32.015625 L 21.828125 -32.65625 L 21.828125 -4.25 L 27.140625 -3.28125 L 27.140625 0 L 8.0625 0 L 8.0625 -3.28125 Z M 13.46875 -4.203125 "/></g></g></g><g fill="#323131" fill-opacity="1"><g transform="translate(135.97388, 54.579587)"><g><path d="M 9.375 -40.953125 C 10.914062 -40.953125 12.101562 -40.554688 12.9375 -39.765625 C 13.78125 -38.984375 14.203125 -37.898438 14.203125 -36.515625 C 14.203125 -34.960938 13.628906 -33.695312 12.484375 -32.71875 C 11.335938 -31.738281 9.992188 -31.25 8.453125 -31.25 C 7.097656 -31.25 5.953125 -31.664062 5.015625 -32.5 C 4.085938 -33.34375 3.625 -34.40625 3.625 -35.6875 C 3.625 -36.65625 3.90625 -37.539062 4.46875 -38.34375 C 5.03125 -39.15625 5.753906 -39.789062 6.640625 -40.25 C 7.523438 -40.71875 8.4375 -40.953125 9.375 -40.953125 Z M 13.375 -26.5625 L 13.375 -3.8125 L 16.765625 -3.1875 L 16.765625 0 L 1.890625 0 L 1.890625 -3.1875 L 5.015625 -3.859375 L 5.015625 -18.546875 L 2.03125 -21.921875 L 2.03125 -24.15625 L 11.34375 -27.140625 Z M 13.375 -26.5625 "/></g></g></g><g fill="#323131" fill-opacity="1"><g transform="translate(153.602182, 54.579587)"><g><path d="M 5.21875 -3.8125 L 5.21875 -19.3125 L 2.03125 -21.59375 L 2.03125 -24.53125 L 10.8125 -27.140625 L 12.5625 -26.703125 L 12.5625 -23.1875 C 13.59375 -24.3125 14.910156 -25.25 16.515625 -26 C 18.128906 -26.757812 19.675781 -27.15625 21.15625 -27.1875 C 25.3125 -27.414062 27.984375 -26.175781 29.171875 -23.46875 C 30.390625 -24.664062 31.75 -25.578125 33.25 -26.203125 C 34.75 -26.828125 36.300781 -27.140625 37.90625 -27.140625 C 41 -27.140625 43.242188 -26.164062 44.640625 -24.21875 C 46.046875 -22.269531 46.75 -19.492188 46.75 -15.890625 L 46.75 -3.859375 L 50.03125 -3.1875 L 50.03125 0 L 35.640625 0 L 35.640625 -3.1875 L 38.390625 -3.859375 L 38.390625 -14.828125 C 38.390625 -16.628906 38.269531 -18.007812 38.03125 -18.96875 C 37.789062 -19.9375 37.320312 -20.644531 36.625 -21.09375 C 35.9375 -21.550781 34.898438 -21.78125 33.515625 -21.78125 C 33.003906 -21.78125 32.429688 -21.664062 31.796875 -21.4375 C 31.171875 -21.21875 30.601562 -20.929688 30.09375 -20.578125 C 30.25 -19.703125 30.328125 -18.378906 30.328125 -16.609375 L 30.328125 -3.859375 L 33.65625 -3.1875 L 33.65625 0 L 18.640625 0 L 18.640625 -3.1875 L 21.96875 -3.90625 L 21.96875 -15.015625 C 21.96875 -17.367188 21.660156 -19.082031 21.046875 -20.15625 C 20.441406 -21.238281 19.316406 -21.78125 17.671875 -21.78125 C 16.835938 -21.78125 16.035156 -21.664062 15.265625 -21.4375 C 14.492188 -21.21875 13.929688 -20.929688 13.578125 -20.578125 L 13.578125 -3.859375 L 16.65625 -3.1875 L 16.65625 0 L 2.3125 0 L 2.3125 -3.1875 Z M 5.21875 -3.8125 "/></g></g></g><g fill="#323131" fill-opacity="1"><g transform="translate(204.748409, 54.579587)"><g><path d="M 16.171875 -27.140625 C 19.753906 -27.140625 22.484375 -26.242188 24.359375 -24.453125 C 26.242188 -22.671875 27.1875 -20.070312 27.1875 -16.65625 C 27.1875 -15.238281 27.078125 -13.859375 26.859375 -12.515625 L 10.4375 -12.515625 C 10.65625 -9.710938 11.375 -7.601562 12.59375 -6.1875 C 13.820312 -4.769531 15.597656 -4.0625 17.921875 -4.0625 C 20.492188 -4.0625 22.988281 -4.59375 25.40625 -5.65625 L 26.65625 -2.703125 C 25.40625 -1.640625 23.722656 -0.8125 21.609375 -0.21875 C 19.503906 0.375 17.484375 0.671875 15.546875 0.671875 C 11.140625 0.671875 7.734375 -0.476562 5.328125 -2.78125 C 2.929688 -5.082031 1.734375 -8.328125 1.734375 -12.515625 C 1.734375 -15.347656 2.34375 -17.875 3.5625 -20.09375 C 4.789062 -22.3125 6.5 -24.039062 8.6875 -25.28125 C 10.882812 -26.519531 13.378906 -27.140625 16.171875 -27.140625 Z M 15.453125 -23.859375 C 12.523438 -23.859375 10.851562 -21.332031 10.4375 -16.28125 L 19.078125 -16.28125 C 19.203125 -17.4375 19.265625 -18.414062 19.265625 -19.21875 C 19.265625 -22.3125 17.992188 -23.859375 15.453125 -23.859375 Z M 15.453125 -23.859375 "/></g></g></g></g></g><g clip-path="url(#7998a1dffe)"><g clip-path="url(#aba0478cc1)"><path fill="url(#b6ec177a72)" d="M 15.347656 110.691406 L 15.347656 264.410156 L 121.210938 264.410156 L 121.210938 110.691406 Z M 15.347656 110.691406 " fill-rule="nonzero"/></g></g></svg>